<svg width="30" height="34" viewBox="0 0 30 34" fill="none" xmlns="http://www.w3.org/2000/svg">
<path fill-rule="evenodd" clip-rule="evenodd" d="M0 25.1167V12.4283H30V25.2183C30 30.45 26.7069 33.6667 21.438 33.6667H8.54555C3.32602 33.6667 0 30.3833 0 25.1167ZM8.26564 21.0167C7.50823 21.0517 6.88255 20.45 6.84962 19.685C6.84962 18.9183 7.44237 18.285 8.19978 18.25C8.94072 18.25 9.54995 18.835 9.56641 19.5833C9.59934 20.3517 9.00659 20.985 8.26564 21.0167ZM15.0329 21.0167C14.2755 21.0517 13.6498 20.45 13.6169 19.685C13.6169 18.9183 14.2097 18.285 14.9671 18.25C15.708 18.25 16.3172 18.835 16.3337 19.5833C16.3666 20.3517 15.7739 20.985 15.0329 21.0167ZM21.7508 27.15C20.9934 27.1333 20.3842 26.5 20.3842 25.7333C20.3677 24.9667 20.9769 24.335 21.7344 24.3183H21.7508C22.5247 24.3183 23.1504 24.9517 23.1504 25.7333C23.1504 26.5167 22.5247 27.15 21.7508 27.15ZM13.6169 25.7333C13.6498 26.5 14.2755 27.1017 15.0329 27.0667C15.7739 27.035 16.3666 26.4017 16.3337 25.635C16.3172 24.885 15.708 24.3 14.9671 24.3C14.2097 24.335 13.6169 24.9667 13.6169 25.7333ZM6.83315 25.7333C6.86608 26.5 7.49177 27.1017 8.24918 27.0667C8.99012 27.035 9.58288 26.4017 9.54995 25.635C9.53348 24.885 8.92426 24.3 8.18332 24.3C7.42591 24.335 6.83315 24.9667 6.83315 25.7333ZM20.4007 19.6683C20.4007 18.9017 20.9934 18.285 21.7508 18.2683C22.4918 18.2683 23.0845 18.8667 23.1175 19.6017C23.1339 20.3683 22.5412 21.0017 21.8002 21.0167C21.0428 21.0333 20.4171 20.45 20.4007 19.685V19.6683Z" fill="#4D77FF"/>
<path opacity="0.4" d="M0.00559998 12.4282C0.027005 11.4498 0.109332 9.50816 0.264107 8.88316C1.05445 5.36816 3.73831 3.13483 7.57476 2.8165H22.4266C26.2301 3.1515 28.9469 5.39983 29.7372 8.88316C29.8903 9.4915 29.9727 11.4482 29.9941 12.4282H0.00559998Z" fill="#4D77FF"/>
<path d="M8.84144 7.98333C9.56592 7.98333 10.1093 7.435 10.1093 6.7V1.61833C10.1093 0.883328 9.56592 0.333328 8.84144 0.333328C8.11696 0.333328 7.5736 0.883328 7.5736 1.61833V6.7C7.5736 7.435 8.11696 7.98333 8.84144 7.98333" fill="#4D77FF"/>
<path d="M21.1582 7.98333C21.8662 7.98333 22.4261 7.435 22.4261 6.7V1.61833C22.4261 0.883328 21.8662 0.333328 21.1582 0.333328C20.4338 0.333328 19.8904 0.883328 19.8904 1.61833V6.7C19.8904 7.435 20.4338 7.98333 21.1582 7.98333" fill="#4D77FF"/>
</svg>
