<svg width="34" height="32" viewBox="0 0 34 32" fill="none" xmlns="http://www.w3.org/2000/svg">
<path opacity="0.4" d="M18.6272 1.18936L22.338 8.64649C22.6114 9.18676 23.1331 9.56195 23.7349 9.64533L32.0701 10.8593C32.5568 10.9276 32.9986 11.1844 33.297 11.5763C33.5921 11.9632 33.7188 12.4534 33.6471 12.9353C33.5887 13.3355 33.4004 13.7057 33.112 13.9892L27.0723 19.8438C26.6306 20.2524 26.4305 20.8577 26.5372 21.4497L28.0242 29.6805C28.1826 30.6744 27.5241 31.6115 26.5372 31.7999C26.1305 31.865 25.7137 31.7966 25.347 31.6098L17.912 27.7362C17.3602 27.4577 16.7084 27.4577 16.1566 27.7362L8.72172 31.6098C7.80819 32.0951 6.67628 31.7649 6.16784 30.8644C5.97946 30.5059 5.91278 30.0974 5.97446 29.6989L7.46145 21.4663C7.56814 20.876 7.36643 20.2674 6.92633 19.8589L0.886705 14.0075C0.168217 13.3139 0.146546 12.1716 0.838361 11.4529C0.853364 11.4379 0.870035 11.4212 0.886705 11.4046C1.17343 11.1127 1.55018 10.9276 1.95693 10.8793L10.2921 9.66367C10.8922 9.57863 11.414 9.20677 11.689 8.66316L15.2665 1.18936C15.5849 0.549036 16.245 0.1505 16.9618 0.167175H17.1852C17.807 0.242214 18.3488 0.627409 18.6272 1.18936" fill="#4D77FF"/>
<path d="M16.9867 27.5285C16.6639 27.5385 16.3493 27.6253 16.0665 27.7804L8.66788 31.6452C7.76261 32.0773 6.67928 31.742 6.17173 30.8763C5.98369 30.5227 5.91546 30.1173 5.9787 29.7203L7.45642 21.5053C7.55626 20.9081 7.35657 20.3009 6.92224 19.8806L0.879906 14.0308C0.16268 13.3286 0.149367 12.1759 0.851616 11.457C0.8616 11.447 0.869921 11.4387 0.879906 11.4303C1.16613 11.1468 1.53556 10.9599 1.93328 10.9016L10.2754 9.67389C10.8795 9.59716 11.4037 9.22019 11.6699 8.67307L15.296 1.1052C15.6404 0.494702 16.3011 0.13107 17 0.169435C16.9867 0.664841 16.9867 27.1916 16.9867 27.5285" fill="#4D77FF"/>
</svg>
